<?xml version="1.0" encoding="utf-8"?>
<svg version="1.1" xmlns="http://www.w3.org/2000/svg" width="1050" height="700">
<rect fill="#FFF" width="1050" height="700"/>
<path stroke="#BF0A30" stroke-width="1330" stroke-dasharray="53.846" d="M665,0v700"/>
<rect fill="#002868" width="383" height="376.924"/>
<g fill="#FFF">
  <polygon points="44.038,152.988 56.711,191.99 23.533,167.885 64.543,167.885 31.365,191.99 "/>
  <polygon points="69.442,87.957 82.115,126.959 48.937,102.854 89.947,102.854 56.769,126.959 "/>
  <polygon points="121.699,38.561 134.372,77.563 101.194,53.459 142.204,53.459 109.026,77.563 "/>
  <polygon points="191.239,22.867 203.912,61.869 170.734,37.764 211.744,37.764 178.566,61.869 "/>
  <polygon points="260.758,39.545 273.431,78.547 240.253,54.442 281.263,54.442 248.085,78.547 "/>
  <polygon points="313.362,87.491 326.035,126.494 292.857,102.388 333.867,102.388 300.689,126.494 "/>
  <polygon points="338.964,152.987 351.637,191.99 318.459,167.885 359.469,167.885 326.292,191.99 "/>
  <polygon points="329.652,223.416 342.325,262.418 309.147,238.313 350.157,238.313 316.979,262.418 "/>
  <polygon points="289.62,283.461 302.292,322.463 269.115,298.358 310.125,298.358 276.947,322.463 "/>
  <polygon points="226.311,315.115 238.984,354.118 205.806,330.012 246.816,330.012 213.638,354.118 "/>
  <polygon points="155.09,315.582 167.763,354.584 134.585,330.479 175.595,330.479 142.417,354.584 "/>
  <polygon points="92.717,283.001 105.39,322.004 72.212,297.898 113.222,297.898 80.044,322.004 "/>
  <polygon points="53.288,223.416 65.961,262.418 32.783,238.313 73.793,238.313 40.615,262.418 "/>
</g>
</svg>
